<?xml version="1.0" encoding="UTF-8"?>
<!DOCTYPE svg PUBLIC "-//W3C//DTD SVG 1.1//EN" "http://www.w3.org/Graphics/SVG/1.1/DTD/svg11.dtd">
<svg version="1.1" xmlns="http://www.w3.org/2000/svg" xmlns:xlink="http://www.w3.org/1999/xlink" x="0" y="0" width="800" height="800" viewBox="0, 0, 800, 800">
	<path d="M400,669 C251.435,669 131,548.565 131,400 C131,251.435 251.435,131 400,131 C548.565,131 669,251.435 669,400 C669,548.565 548.565,669 400,669 z" fill="#3B82F6"/>
	<path d="M685.733,262.882 C676.953,252.396 661.316,251.018 650.831,259.761 L582.115,317.484 L550.515,239.19 C549.39,236.251 547.685,233.784 545.726,231.607 C539.268,217.24 528.057,204.905 512.601,197.757 C505.889,194.71 498.96,193.077 492.03,192.279 C490.506,191.481 489.128,190.429 487.386,189.884 L366.462,156.18 C359.678,154.329 352.857,155.527 347.27,158.792 C340.63,161.041 334.934,165.867 332.213,172.869 L286.681,289.947 C281.746,302.682 288.059,317.049 300.83,322.056 C313.528,326.99 327.932,320.641 332.902,307.87 L371.36,209.004 L426.434,224.315 C425.092,226.492 423.641,228.524 422.552,230.846 L351.95,383.878 C350.934,386.128 350.39,388.413 349.664,390.735 L263.86,534.589 L120.26,582.625 C104.007,594.779 100.56,617.672 112.569,633.926 C124.65,650.216 147.616,653.662 163.834,641.653 L310.771,591.042 C315.27,587.776 318.535,583.495 321.002,578.888 C322.853,576.928 324.957,575.368 326.372,572.938 L377.528,487.17 L468.339,564.557 L371.179,674.052 C357.791,689.145 359.133,712.401 374.299,725.752 C389.428,739.213 412.611,737.798 426.072,722.632 L547.322,586.035 C551.095,581.826 553.345,576.965 554.868,571.885 C555.776,569.128 555.776,566.262 555.993,563.396 C555.993,561.944 556.537,560.638 556.429,559.296 C556.102,549.282 552.039,539.559 543.839,532.63 L460.284,461.374 C466.307,455.642 471.423,448.821 475.123,440.803 L529.254,323.579 L546.596,369.765 C547.322,373.865 548.701,377.892 551.603,381.266 C554.215,384.386 557.553,386.454 561.109,387.905 C561.472,388.087 561.907,388.123 562.342,388.232 C564.592,389.03 566.877,389.792 569.236,389.901 C572.029,390.155 574.859,389.792 577.725,388.994 C577.798,388.957 577.834,388.957 577.834,388.957 C578.596,388.776 579.358,388.921 580.12,388.595 C584.147,387.071 587.231,384.495 589.88,381.484 L688.491,297.784 C698.976,288.967 694.55,273.367 685.733,262.882 z" fill="#FFCC00"/>
	<path d="M630.115,134.121 C630.115,172.292 599.171,203.236 561,203.236 C522.829,203.236 491.885,172.292 491.885,134.121 C491.885,95.95 522.829,65.006 561,65.006 C599.171,65.006 630.115,95.95 630.115,134.121 z" fill="#FFCC00"/>
</svg>
