<?xml version="1.0" encoding="UTF-8"?>
<!DOCTYPE svg PUBLIC "-//W3C//DTD SVG 1.1//EN" "http://www.w3.org/Graphics/SVG/1.1/DTD/svg11.dtd">
<svg version="1.1" xmlns="http://www.w3.org/2000/svg" xmlns:xlink="http://www.w3.org/1999/xlink" x="0" y="0" width="16" height="16" viewBox="0, 0, 16, 16">
  <path d="M12.908,5.645 C12.758,5.464 12.489,5.441 12.309,5.591 L11.128,6.583 L10.586,5.238 C10.566,5.187 10.537,5.145 10.503,5.107 C10.392,4.861 10.2,4.649 9.934,4.526 C9.819,4.473 9.7,4.445 9.581,4.432 C9.555,4.418 9.531,4.4 9.501,4.391 L7.424,3.812 C7.307,3.78 7.19,3.8 7.094,3.856 C6.98,3.895 6.882,3.978 6.836,4.098 L6.053,6.109 C5.969,6.328 6.077,6.575 6.296,6.661 C6.515,6.746 6.762,6.637 6.847,6.417 L7.508,4.719 L8.454,4.982 C8.431,5.019 8.406,5.054 8.387,5.094 L7.175,7.723 C7.157,7.762 7.148,7.801 7.135,7.841 L5.661,10.312 L3.195,11.137 C2.915,11.346 2.856,11.739 3.062,12.018 C3.27,12.298 3.664,12.357 3.943,12.151 L6.467,11.282 C6.544,11.226 6.601,11.152 6.643,11.073 C6.675,11.039 6.711,11.013 6.735,10.971 L7.614,9.497 L9.174,10.827 L7.505,12.708 C7.275,12.967 7.298,13.366 7.558,13.596 C7.818,13.827 8.217,13.803 8.448,13.542 L10.531,11.196 C10.596,11.123 10.634,11.04 10.66,10.953 C10.676,10.905 10.676,10.856 10.68,10.807 C10.68,10.782 10.689,10.759 10.687,10.736 C10.682,10.564 10.612,10.397 10.471,10.278 L9.036,9.054 C9.139,8.956 9.227,8.839 9.29,8.701 L10.22,6.687 L10.518,7.481 C10.531,7.551 10.554,7.62 10.604,7.678 C10.649,7.732 10.706,7.767 10.768,7.792 C10.774,7.795 10.781,7.796 10.789,7.798 C10.827,7.812 10.867,7.825 10.907,7.827 C10.955,7.831 11.004,7.825 11.053,7.811 C11.054,7.81 11.055,7.81 11.055,7.81 C11.068,7.807 11.081,7.81 11.094,7.804 C11.163,7.778 11.216,7.734 11.262,7.682 L12.956,6.244 C13.136,6.093 13.06,5.825 12.908,5.645 z" fill="#000000"/>
  <path d="M11.953,3.433 C11.953,4.088 11.421,4.62 10.766,4.62 C10.11,4.62 9.578,4.088 9.578,3.433 C9.578,2.777 10.11,2.245 10.766,2.245 C11.421,2.245 11.953,2.777 11.953,3.433 z" fill="#000000"/>
</svg>
